<svg width="80" height="79" viewBox="0 0 80 79" fill="none" xmlns="http://www.w3.org/2000/svg">
<path d="M0.00624847 44.6377C0.0677256 43.8889 0.574586 43.2508 1.29002 43.0212L10.965 39.9181L14.0684 30.2443C14.2515 29.6734 14.6989 29.2262 15.2697 29.0431L24.9442 25.9402L28.0471 16.2669C28.2302 15.696 28.6776 15.2486 29.2486 15.0657L38.9224 11.9631L42.0252 2.29004C42.2548 1.57467 42.893 1.06786 43.6418 1.00639C44.3913 0.944171 45.103 1.34086 45.4462 2.00924L68.059 46.059L73.245 51.2445C79.585 57.5838 79.585 67.8988 73.245 74.2379C70.1738 77.3089 66.0903 79 61.7471 79C57.4036 79 53.3205 77.3089 50.2492 74.2379L45.0632 69.0526L1.00957 46.4419C0.340748 46.0987 -0.0552287 45.3867 0.00624847 44.6377ZM44.1914 7.69859L42.4279 13.1963L55.3923 34.354C55.9284 35.2285 55.6537 36.3719 54.7791 36.9077C54.4761 37.0932 54.1414 37.1816 53.8105 37.1816C53.1857 37.1816 52.5753 36.8663 52.2251 36.2945L39.5775 15.6538L31.2924 18.3109L28.5355 26.9051L35.069 33.4386C35.7943 34.1638 35.7943 35.3397 35.0688 36.0649C34.7063 36.4276 34.231 36.6089 33.7557 36.6089C33.2804 36.6089 32.805 36.4275 32.4424 36.0649L25.9091 29.5315L17.3138 32.2883L14.656 40.5733L49.2875 61.7906L53.7286 57.3498L37.6956 41.3175C36.9704 40.5923 36.9704 39.4163 37.6956 38.6911C38.4211 37.9659 39.5972 37.9659 40.3224 38.6911L56.3552 54.7233L60.7964 50.2825L56.0885 42.5991C55.5524 41.7246 55.8271 40.5811 56.7017 40.0453C57.5769 39.5094 58.7199 39.784 59.2557 40.6588L63.4977 47.5816L64.2694 46.81L44.1914 7.69859ZM52.8759 71.6115C55.2454 73.9809 58.396 75.2857 61.7471 75.2857C65.0981 75.2857 68.2489 73.9809 70.6184 71.6114C75.51 66.7204 75.51 58.7618 70.6184 53.8707L66.5399 49.7926L48.7974 67.5333L52.8759 71.6115ZM45.8143 65.2633L46.5859 64.4918L12.1977 43.4235L6.69891 45.1872L45.8143 65.2633Z" fill="#9F2D00"/>
<path d="M2.00626 43.6377C2.06773 42.8889 2.57459 42.2508 3.29003 42.0212L12.965 38.9181L16.0684 29.2443C16.2515 28.6734 16.6989 28.2262 17.2697 28.0431L26.9442 24.9402L30.0471 15.2669C30.2302 14.696 30.6776 14.2486 31.2486 14.0657L40.9224 10.9631L44.0252 1.29004C44.2548 0.574671 44.893 0.0678572 45.6418 0.0063858C46.3913 -0.0558284 47.103 0.340857 47.4462 1.00924L70.0591 45.059L75.245 50.2445C81.585 56.5838 81.585 66.8988 75.245 73.2379C72.1738 76.3089 68.0903 78 63.7471 78C59.4036 78 55.3205 76.3089 52.2492 73.2379L47.0633 68.0526L3.00957 45.4419C2.34076 45.0987 1.94478 44.3867 2.00626 43.6377ZM46.1914 6.69859L44.4279 12.1963L57.3923 33.354C57.9284 34.2285 57.6537 35.3719 56.7791 35.9077C56.4761 36.0932 56.1414 36.1816 55.8105 36.1816C55.1857 36.1816 54.5754 35.8663 54.2251 35.2945L41.5775 14.6538L33.2924 17.3109L30.5356 25.9051L37.069 32.4386C37.7943 33.1638 37.7943 34.3397 37.0689 35.0649C36.7063 35.4276 36.231 35.6089 35.7557 35.6089C35.2804 35.6089 34.805 35.4275 34.4424 35.0649L27.9091 28.5315L19.3138 31.2883L16.656 39.5733L51.2875 60.7906L55.7286 56.3498L39.6957 40.3175C38.9704 39.5923 38.9704 38.4163 39.6957 37.6911C40.4211 36.9659 41.5972 36.9659 42.3225 37.6911L58.3552 53.7233L62.7964 49.2825L58.0885 41.5991C57.5524 40.7246 57.8271 39.5811 58.7017 39.0453C59.5769 38.5094 60.7199 38.784 61.2557 39.6588L65.4977 46.5816L66.2694 45.81L46.1914 6.69859ZM54.8759 70.6115C57.2454 72.9809 60.396 74.2857 63.7471 74.2857C67.0981 74.2857 70.2489 72.9809 72.6184 70.6114C77.51 65.7204 77.51 57.7618 72.6184 52.8707L68.54 48.7926L50.7974 66.5333L54.8759 70.6115ZM47.8144 64.2633L48.5859 63.4918L14.1977 42.4235L8.69891 44.1872L47.8144 64.2633Z" fill="#CA3500"/>
</svg>
